//
// Created by Qiufeng54321 on 2019-09-24.
// Copyright (C) 2019  Qiufeng54321
//
//    This program is free software: you can redistribute it and/or modify
//    it under the terms of the GNU General Public License as published by
//    the Free Software Foundation, either version 3 of the License, or
//    (at your option) any later version.
//
//    This program is distributed in the hope that it will be useful,
//    but WITHOUT ANY WARRANTY; without even the implied warranty of
//    MERCHANTABILITY or FITNESS FOR A PARTICULAR PURPOSE.  See the
//    GNU General Public License for more details.
//
//    You should have received a copy of the GNU General Public License
//    along with this program.  If not, see <https://www.gnu.org/licenses/>.
//

#ifndef BUZZER_PLAY_MUSIC_HPP
#define BUZZER_PLAY_MUSIC_HPP

//The code below is generated by Buzzer-Midi-Convert by Qiufeng54321.
//Midi info:
//		Generated for midi file mid_determination.mid
//		Tracks 		: 5
//		Duration 	: 50.3532s
//		Tracks info:
//			Track 0        has 2        events.
//			Track 1        has 2        events.
//			Track 2        has 40       events.
//			Track 3        has 408      events.
//			Track 4        has 362      events.
NoteAction track0[]{
};
NoteAction track1[]{
};
NoteAction track2[]{
};
NoteAction track3[]{
		{260,  Pitch::NOTE_FS3},
		{260,  Pitch::NOTE_F3},
		{260,  Pitch::NOTE_DS3},
		{260,  Pitch::NOTE_CS3},
		{260,  Pitch::NOTE_DS3},
		{260,  Pitch::NOTE_AS2},
		{260,  Pitch::NOTE_C3},
		{260},
		{260,  Pitch::NOTE_GS2},
		{260},
		{260,  Pitch::NOTE_DS3},
		{260,  Pitch::NOTE_F3},
		{260,  Pitch::NOTE_FS3},
		{260},
		{260,  Pitch::NOTE_GS3},
		{260},
		{260,  Pitch::NOTE_CS4},
		{260},
		{1434, Pitch::NOTE_AS3},
		{130},
		{260,  Pitch::NOTE_FS3},
		{260,  Pitch::NOTE_F3},
		{260,  Pitch::NOTE_DS3},
		{260,  Pitch::NOTE_CS3},
		{260,  Pitch::NOTE_DS3},
		{260,  Pitch::NOTE_AS2},
		{260,  Pitch::NOTE_C3},
		{260},
		{260,  Pitch::NOTE_GS2},
		{260},
		{260,  Pitch::NOTE_DS2},
		{260,  Pitch::NOTE_F2},
		{260,  Pitch::NOTE_FS2},
		{260},
		{260,  Pitch::NOTE_F2},
		{260},
		{260,  Pitch::NOTE_CS2},
		{260},
		{1565, Pitch::NOTE_DS2},
		{260,  Pitch::NOTE_FS3},
		{260,  Pitch::NOTE_F3},
		{260,  Pitch::NOTE_DS3},
		{260,  Pitch::NOTE_CS3},
		{260,  Pitch::NOTE_DS3},
		{260,  Pitch::NOTE_AS2},
		{260,  Pitch::NOTE_C3},
		{260},
		{260,  Pitch::NOTE_GS2},
		{260},
		{260,  Pitch::NOTE_DS3},
		{260,  Pitch::NOTE_F3},
		{260,  Pitch::NOTE_FS3},
		{260},
		{260,  Pitch::NOTE_GS3},
		{260},
		{260,  Pitch::NOTE_CS4},
		{260},
		{1434, Pitch::NOTE_AS3},
		{130},
		{260,  Pitch::NOTE_FS3},
		{260,  Pitch::NOTE_F3},
		{260,  Pitch::NOTE_DS3},
		{260,  Pitch::NOTE_CS3},
		{260,  Pitch::NOTE_DS3},
		{260,  Pitch::NOTE_AS2},
		{260,  Pitch::NOTE_C3},
		{260},
		{260,  Pitch::NOTE_GS2},
		{260},
		{260,  Pitch::NOTE_DS2},
		{260,  Pitch::NOTE_F2},
		{260,  Pitch::NOTE_FS2},
		{260},
		{260,  Pitch::NOTE_F2},
		{260},
		{260,  Pitch::NOTE_CS2},
		{260},
		{1565, Pitch::NOTE_DS2},
		{260,  Pitch::NOTE_E3},
		{260,  Pitch::NOTE_GS3},
		{260,  Pitch::NOTE_DS3},
		{260,  Pitch::NOTE_FS3},
		{260,  Pitch::NOTE_CS3},
		{260,  Pitch::NOTE_E3},
		{260,  Pitch::NOTE_DS3},
		{260,  Pitch::NOTE_B2},
		{260,  Pitch::NOTE_AS2},
		{260,  Pitch::NOTE_CS3},
		{260,  Pitch::NOTE_B2},
		{260,  Pitch::NOTE_E3},
		{260,  Pitch::NOTE_AS2},
		{260,  Pitch::NOTE_DS3},
		{260},
		{260,  Pitch::NOTE_AS2},
		{260,  Pitch::NOTE_FS2},
		{260},
		{260,  Pitch::NOTE_AS2},
		{260,  Pitch::NOTE_FS2},
		{260,  Pitch::NOTE_AS2},
		{260,  Pitch::NOTE_DS3},
		{260,  Pitch::NOTE_E3},
		{260,  Pitch::NOTE_GS3},
		{260,  Pitch::NOTE_DS3},
		{260,  Pitch::NOTE_FS3},
		{260,  Pitch::NOTE_CS3},
		{260,  Pitch::NOTE_E3},
		{260,  Pitch::NOTE_B2},
		{260,  Pitch::NOTE_DS3},
		{260,  Pitch::NOTE_AS2},
		{260,  Pitch::NOTE_CS3},
		{260,  Pitch::NOTE_B2},
		{260,  Pitch::NOTE_E3},
		{913,  Pitch::NOTE_AS2},
		{913,  Pitch::NOTE_DS3},
		{130},
		{521,  Pitch::NOTE_DS2},
		{260,  Pitch::NOTE_GS2},
		{260,  Pitch::NOTE_CS3},
		{260,  Pitch::NOTE_AS2},
		{260,  Pitch::NOTE_C3},
		{260,  Pitch::NOTE_GS2},
		{260,  Pitch::NOTE_AS2},
		{260,  Pitch::NOTE_FS2},
		{260,  Pitch::NOTE_GS2},
		{260,  Pitch::NOTE_F2},
		{260,  Pitch::NOTE_AS2},
		{260,  Pitch::NOTE_FS2},
		{260,  Pitch::NOTE_GS2},
		{260,  Pitch::NOTE_C3},
		{260,  Pitch::NOTE_FS2},
		{260,  Pitch::NOTE_AS2},
		{260},
		{260,  Pitch::NOTE_A1},
		{260,  Pitch::NOTE_DS2},
		{260},
		{260,  Pitch::NOTE_DS2},
		{260,  Pitch::NOTE_A1},
		{260,  Pitch::NOTE_F2},
		{260,  Pitch::NOTE_CS2},
		{260,  Pitch::NOTE_FS2},
		{260,  Pitch::NOTE_DS2},
		{260},
		{260,  Pitch::NOTE_DS2},
		{260,  Pitch::NOTE_AS2},
		{260},
		{260,  Pitch::NOTE_DS2},
		{260,  Pitch::NOTE_DS3},
		{260},
		{1434, Pitch::NOTE_F2},
		{1434, Pitch::NOTE_D3},
		{260,  Pitch::NOTE_D3},
		{1304},
		{260,  Pitch::NOTE_E3},
		{260,  Pitch::NOTE_GS3},
		{260,  Pitch::NOTE_DS3},
		{260,  Pitch::NOTE_FS3},
		{260,  Pitch::NOTE_CS3},
		{260,  Pitch::NOTE_E3},
		{260,  Pitch::NOTE_DS3},
		{260,  Pitch::NOTE_B2},
		{260,  Pitch::NOTE_AS2},
		{260,  Pitch::NOTE_CS3},
		{260,  Pitch::NOTE_B2},
		{260,  Pitch::NOTE_E3},
		{260,  Pitch::NOTE_AS2},
		{260,  Pitch::NOTE_DS3},
		{260},
		{260,  Pitch::NOTE_AS2},
		{260,  Pitch::NOTE_FS2},
		{260},
		{260,  Pitch::NOTE_AS2},
		{260,  Pitch::NOTE_FS2},
		{260,  Pitch::NOTE_AS2},
		{260,  Pitch::NOTE_DS3},
		{260,  Pitch::NOTE_E3},
		{260,  Pitch::NOTE_GS3},
		{260,  Pitch::NOTE_DS3},
		{260,  Pitch::NOTE_FS3},
		{260,  Pitch::NOTE_CS3},
		{260,  Pitch::NOTE_E3},
		{260,  Pitch::NOTE_B2},
		{260,  Pitch::NOTE_DS3},
		{260,  Pitch::NOTE_AS2},
		{260,  Pitch::NOTE_CS3},
		{260,  Pitch::NOTE_B2},
		{260,  Pitch::NOTE_E3},
		{913,  Pitch::NOTE_AS2},
		{913,  Pitch::NOTE_DS3},
		{130},
		{521,  Pitch::NOTE_DS2},
		{260,  Pitch::NOTE_GS2},
		{260,  Pitch::NOTE_AS2},
		{260,  Pitch::NOTE_CS3},
		{260,  Pitch::NOTE_GS2},
		{260,  Pitch::NOTE_C3},
		{260,  Pitch::NOTE_FS2},
		{260,  Pitch::NOTE_AS2},
		{260,  Pitch::NOTE_GS2},
		{260,  Pitch::NOTE_F2},
		{260,  Pitch::NOTE_FS2},
		{260,  Pitch::NOTE_AS2},
		{260,  Pitch::NOTE_GS2},
		{260,  Pitch::NOTE_C3},
		{260,  Pitch::NOTE_AS2},
		{260,  Pitch::NOTE_FS2},
		{260},
		{260,  Pitch::NOTE_DS2},
		{260},
		{260,  Pitch::NOTE_DS2},
		{260,  Pitch::NOTE_A1},
		{260,  Pitch::NOTE_F2},
		{260,  Pitch::NOTE_CS2},
		{260,  Pitch::NOTE_DS2},
		{260,  Pitch::NOTE_FS2},
		{260},
		{260,  Pitch::NOTE_CS2},
		{260,  Pitch::NOTE_F2},
		{260},
		{260,  Pitch::NOTE_G1},
		{260,  Pitch::NOTE_CS2},
		{260},
		{1434, Pitch::NOTE_A1},
		{1434, Pitch::NOTE_DS2},
};
NoteAction track4[]{
		{260,  Pitch::NOTE_G1},
		{260,  Pitch::NOTE_F2},
		{260,  Pitch::NOTE_FS2},
		{260,  Pitch::NOTE_GS2},
		{260,  Pitch::NOTE_AS2},
		{260,  Pitch::NOTE_A1},
		{260,  Pitch::NOTE_G1},
		{260,  Pitch::NOTE_GS2},
		{260,  Pitch::NOTE_C3},
		{260,  Pitch::NOTE_GS2},
		{260,  Pitch::NOTE_C3},
		{260,  Pitch::NOTE_GS2},
		{260,  Pitch::NOTE_G1},
		{260,  Pitch::NOTE_DS2},
		{260,  Pitch::NOTE_F2},
		{260,  Pitch::NOTE_FS2},
		{260,  Pitch::NOTE_GS2},
		{260,  Pitch::NOTE_F2},
		{260,  Pitch::NOTE_FS2},
		{260,  Pitch::NOTE_F2},
		{260,  Pitch::NOTE_DS2},
		{260,  Pitch::NOTE_CS2},
		{260,  Pitch::NOTE_DS2},
		{260,  Pitch::NOTE_A1},
		{260,  Pitch::NOTE_G1},
		{260,  Pitch::NOTE_DS2},
		{260,  Pitch::NOTE_FS2},
		{260,  Pitch::NOTE_GS2},
		{260,  Pitch::NOTE_AS2},
		{260,  Pitch::NOTE_FS2},
		{260,  Pitch::NOTE_G1},
		{260,  Pitch::NOTE_B1},
		{260,  Pitch::NOTE_DS2},
		{260,  Pitch::NOTE_FS2},
		{260,  Pitch::NOTE_AS2},
		{260,  Pitch::NOTE_GS2},
		{260,  Pitch::NOTE_G1},
		{260,  Pitch::NOTE_DS2},
		{260,  Pitch::NOTE_GS2},
		{260,  Pitch::NOTE_AS2},
		{260,  Pitch::NOTE_F2},
		{260,  Pitch::NOTE_CS2},
		{260,  Pitch::NOTE_FS2},
		{260,  Pitch::NOTE_F2},
		{260,  Pitch::NOTE_DS2},
		{260,  Pitch::NOTE_CS2},
		{260,  Pitch::NOTE_DS2},
		{260,  Pitch::NOTE_F2},
		{260,  Pitch::NOTE_G1},
		{260,  Pitch::NOTE_F2},
		{260,  Pitch::NOTE_FS2},
		{260,  Pitch::NOTE_GS2},
		{260,  Pitch::NOTE_AS2},
		{260,  Pitch::NOTE_A1},
		{260,  Pitch::NOTE_G1},
		{260,  Pitch::NOTE_GS2},
		{260,  Pitch::NOTE_C3},
		{260,  Pitch::NOTE_GS2},
		{260,  Pitch::NOTE_C3},
		{260,  Pitch::NOTE_GS2},
		{260,  Pitch::NOTE_G1},
		{260,  Pitch::NOTE_DS2},
		{260,  Pitch::NOTE_F2},
		{260,  Pitch::NOTE_FS2},
		{260,  Pitch::NOTE_GS2},
		{260,  Pitch::NOTE_F2},
		{260,  Pitch::NOTE_FS2},
		{260,  Pitch::NOTE_F2},
		{260,  Pitch::NOTE_DS2},
		{260,  Pitch::NOTE_CS2},
		{260,  Pitch::NOTE_DS2},
		{260,  Pitch::NOTE_A1},
		{260,  Pitch::NOTE_G1},
		{260,  Pitch::NOTE_DS2},
		{260,  Pitch::NOTE_FS2},
		{260,  Pitch::NOTE_GS2},
		{260,  Pitch::NOTE_AS2},
		{260,  Pitch::NOTE_FS2},
		{260,  Pitch::NOTE_G1},
		{260,  Pitch::NOTE_B1},
		{260,  Pitch::NOTE_DS2},
		{260,  Pitch::NOTE_FS2},
		{260,  Pitch::NOTE_AS2},
		{260,  Pitch::NOTE_GS2},
		{260,  Pitch::NOTE_G1},
		{260,  Pitch::NOTE_DS2},
		{260,  Pitch::NOTE_GS2},
		{260,  Pitch::NOTE_AS2},
		{260,  Pitch::NOTE_F2},
		{260,  Pitch::NOTE_CS2},
		{260,  Pitch::NOTE_FS2},
		{260,  Pitch::NOTE_F2},
		{260,  Pitch::NOTE_DS2},
		{260,  Pitch::NOTE_CS2},
		{260,  Pitch::NOTE_DS2},
		{260,  Pitch::NOTE_F2},
		{260,  Pitch::NOTE_G1},
		{260,  Pitch::NOTE_E2},
		{260,  Pitch::NOTE_GS2},
		{260,  Pitch::NOTE_FS2},
		{260,  Pitch::NOTE_AS2},
		{260,  Pitch::NOTE_GS2},
		{260,  Pitch::NOTE_FS2},
		{260,  Pitch::NOTE_GS2},
		{260,  Pitch::NOTE_DS2},
		{260,  Pitch::NOTE_F2},
		{260,  Pitch::NOTE_CS2},
		{260,  Pitch::NOTE_DS2},
		{260,  Pitch::NOTE_G1},
		{260,  Pitch::NOTE_DS2},
		{260,  Pitch::NOTE_GS2},
		{260,  Pitch::NOTE_FS2},
		{260,  Pitch::NOTE_AS2},
		{260,  Pitch::NOTE_GS2},
		{1434, Pitch::NOTE_FS2},
		{130},
		{260,  Pitch::NOTE_G1},
		{260,  Pitch::NOTE_DS2},
		{260,  Pitch::NOTE_GS2},
		{260,  Pitch::NOTE_DS2},
		{260,  Pitch::NOTE_GS2},
		{260,  Pitch::NOTE_F2},
		{260,  Pitch::NOTE_G1},
		{260,  Pitch::NOTE_DS2},
		{260,  Pitch::NOTE_AS2},
		{260,  Pitch::NOTE_DS2},
		{260,  Pitch::NOTE_AS2},
		{260,  Pitch::NOTE_DS2},
		{260,  Pitch::NOTE_AS1},
		{260,  Pitch::NOTE_DS2},
		{260,  Pitch::NOTE_AS2},
		{260,  Pitch::NOTE_DS2},
		{260,  Pitch::NOTE_AS2},
		{260,  Pitch::NOTE_DS2},
		{260,  Pitch::NOTE_FS2},
		{260,  Pitch::NOTE_F2},
		{260,  Pitch::NOTE_DS2},
		{260,  Pitch::NOTE_D2},
		{260,  Pitch::NOTE_D2},
		{260,  Pitch::NOTE_F2},
		{260,  Pitch::NOTE_G1},
		{260,  Pitch::NOTE_E2},
		{260,  Pitch::NOTE_GS2},
		{260,  Pitch::NOTE_FS2},
		{260,  Pitch::NOTE_AS2},
		{260,  Pitch::NOTE_GS2},
		{260,  Pitch::NOTE_FS2},
		{260,  Pitch::NOTE_GS2},
		{260,  Pitch::NOTE_DS2},
		{260,  Pitch::NOTE_F2},
		{260,  Pitch::NOTE_CS2},
		{260,  Pitch::NOTE_DS2},
		{260,  Pitch::NOTE_G1},
		{260,  Pitch::NOTE_DS2},
		{260,  Pitch::NOTE_GS2},
		{260,  Pitch::NOTE_FS2},
		{260,  Pitch::NOTE_AS2},
		{260,  Pitch::NOTE_GS2},
		{1434, Pitch::NOTE_FS2},
		{130},
		{3130, Pitch::NOTE_B0},
		{1565, Pitch::NOTE_B0},
		{1434, Pitch::NOTE_CS1},
};
Tempo tempo{115};
Pattern patternList0[]{{track0, 0}};
Channel channel0{patternList0, 1, 8};
Pattern patternList1[]{{track1, 0}};
Channel channel1{patternList1, 1, 8};
Pattern patternList2[]{{track2, 0}};
Channel channel2{patternList2, 1, 8};
Pattern patternList3[]{{track3, 184}};
Channel channel3{patternList3, 1, 8};
Pattern patternList4[]{{track4, 161}};
Channel channel4{patternList4, 1, 8};

#endif //BUZZER_PLAY_MUSIC_HPP
